<?xml version="1.0" encoding="UTF-8"?>
<svg id="Layer_1" xmlns="http://www.w3.org/2000/svg" viewBox="0 0 3500 625.2">
  <defs>
    <style>
      .cls-1 {
        fill: #303030;
      }
    </style>
  </defs>
  <path class="cls-1" d="M3500,63.28c-50.11,1.52-98.86,11.35-146.63,19.96-34.78,2.24-69.24,6.49-104.11,7.92-43.05,1.8-86.17,4.09-129.08,6.99-28.34,1.36-56.82,1.64-85.05,3.86-15.76,1.07-31.24,3.44-47.12,3.83-11.65.89-23.56.49-35.12,1.89-63.39,6.13-123.13,21.04-180.26,37.91-4.97,1.6-10.6,3.36-16.24,1.94-9.11-1.1-18.22-2.2-27.34-3.29-74.28-8.87-150.6-12.14-226.13-7.9-110.5,7.33-213.28,35.02-319.87,52.22-9.4,1.62-8.38,1.9-18.03-.6-24.22-6.66-50.48-9.52-76.39-12.89-15.52-1.99-31.14-3.63-47.1-3.73-14.7-1.06-29.51-.9-44.22-.23-15.79-.75-31.72-.67-47.58-.63-37.95-2.26-74.45-10.64-112.22-14.11-52.02-5.84-106.38-.94-155.31,10.49-24.05,4.34-48.65,7.64-72.06,13.21-11.52,2.58-22.89,5.36-34.12,8.35-21.11,4.8-44.13,6.3-65.59,10.69-11.34,1.62-22.3,4.94-33.96,5.44-11.2-.3-22.4-.97-33.56-1.36-71.15-3.18-142.99-1.34-213.59,4.88-62.23,4.76-121.26,17.01-179.86,29.62-13.46,1.82-29.47,4.8-42.32.47-12.3-5.23-27.39-8.68-38.15-14.97-6.92-5.42-12.91-11.22-19.46-16.79-17.83-17.09-44.46-30.32-76.92-36.71-39.13-8.54-81.31-8.34-122.39-9.12-49.09-1.39-97.13-7.82-142.75-18.66C419.87,99.66,260.47,11.49,54.7.21,36.47-.23,18.14,0,0,1.08v3.77C151.8-4.79,305.92,53.81,435.76,96.27c104.19,34.42,214.94,69.16,337.43,68.69,63.11-.29,137.96,7.76,170.26,43.59.56.32,1.11.63,1.67.95-61.71-32.44-146.71-35.18-224.68-41.81-68.94-6.99-133.84-23.44-197.43-40.08C373.47,87.93,220.52,35.99,51.14,42.31c-17.2.52-34.28,1.79-51.14,3.75v3.52c182.73-21.67,375.74,42.96,541.59,86.98,70.68,18.5,144.36,34.28,221.86,38.49,65.22,4.34,135.73,12.27,183.21,41.19-55.05-16.97-114.83-26.88-175.49-34.08-76.52-9.82-151.73-22.9-224.48-40.03C393.28,107.14,231.17,68.83,63.69,83.94c-21.49,1.82-42.78,4.39-63.69,7.79v3.89c46.18-7.66,94.18-11.44,142.14-10.87,155.98-.92,300.75,39.09,444.34,70.24,91.43,21.37,189.53,29.01,283.05,46.04,38.43,7.79,76.22,17.85,109.31,31.61-69.36-14.8-141.62-28.88-213.43-40.82-229.36-37.51-451.66-100.67-694.62-66.27-23.95,3.18-47.62,7.08-70.8,11.82v4.18c5.41-1.14,10.79-2.27,16.14-3.39,66.2-12.47,135.73-18.85,205.18-18.56v.07c97.03-.53,192.64,12.79,285.19,29.02,142.46,28.16,288.27,50.01,430.21,79.04,42.36,9.54,86.78,19.6,128.06,28.79-127.21-15.38-248.99-43.81-372.49-67.2C438.05,139.71,247.24,126.67,0,182.53v4.08c184.44-41.68,346.8-48.22,545.11-18.67,183.95,26.67,357.63,74.9,544.31,95.3,50.95,5.19,102.88,7.63,154.43,4.9,99.36-3.94,188.11-32.66,274.67-59.28,40.59-12,81.64-23.75,125.13-31.65.47-.09,1.03-.03,1.54.01.62.05,0,.56-1.23.97-103.58,34.7-180.92,77.97-304.4,88.78-24.2,2.6-48.59,4.8-73.11,6.05-25.88-1-51.88-1.78-77.83-2.56-37.79.07-75.52-1.32-113.31-1.03-47.45-1.78-94.05-8.91-140.1-15.61-118.04-19.07-228.38-52.11-348.6-67.18-121.91-16.43-249.75-15.79-372.62-3.43-43.48,3.77-86.5,10.72-129.83,14.07-28-1.65-56.09-1.5-84.16-.73v6.44c21.36-1.18,42.4-1.42,61.51-1.21,212.4,5.91,405.7,73.29,618.43,78.96,86.92,3.78,172.45-6.85,259.25-6.86-54.46,3.95-105.6,14.03-159.6,18.9-40.23,4.33-81.03,5.22-121.84,4.6-157.36-5.13-299.08-50.65-450.34-72.04-68.82-10.31-139.41-12.96-207.42-1.52v4.23c19.95-3.25,38.72-5.58,53.92-6.77,105.13-6.55,206.92,16.07,304.9,35.61,108.6,22.32,220.18,46.22,336.74,44.58,100.75-.35,196.01-24.84,296.15-26.44-48.7,3.74-96.57,11.13-142.42,21.65-58.51,13.82-119.49,25.66-183.11,26.18-193.98,6.49-362.58-68.13-553.5-74.53-37.7-1.08-75.63.26-112.68,4.47v3.86c28.84-3.24,58.32-4.77,87.91-4.69,164.61-.71,309.73,55.14,469.54,70.38,61.88,6.53,126.01,6.45,187.53-1.49,57.47-7.3,110.07-23.55,166.7-32.47,56.25-9.28,114.56-12.88,172.68-14.43,97.96-1.44,195.83,2.88,293.32,8.18,65.14,3.31,130.34,6.31,195.65,7.84,44.84.22,89.89.99,134.55-1.59,1.07-.11,2.18-.06,3.28-.09.72-.02,1.1.13,1.01.44-1.17.83-3.34,1.02-4.96,1.55-19.13,4.3-37.44,10.18-57.53,12.77-8.41.45-16.98.07-25.41-.14-47.23-1.5-94.36-4.04-141.36-7.34-130.88-8.74-261.81-21.26-393.87-18.04-105.46,1.97-208.25,19.05-302.77,46.38-40.27,7.66-82.84,10.76-123.5,17.79-12.49,1.61-24.61,4.86-37.46,5.17-12.04-.04-24.09-.02-36.13-.08-191.7-6.79-362.69-81.11-558.46-69.86-10.33.08-20.55.82-30.71,1.78v3.66c197.69-16.92,346.29,45.95,540.01,65.16,11.1.98,22.26,1.63,33.39,2.41,2.53.53,39.92-.14,24.58,2.8-16.24,2.56-31.75,7.86-48.79,7.99-171.74-1.13-327.37-59.27-499.74-58.33-17.33.11-33.41.53-49.45,1.39v3.58c163.97-9.16,301.11,33.91,461.72,52.26,23.66,2.73,47.76,3.51,71.67,5.01,1.22.04.93.72.15.89-9.92,1.78-19.55,4.31-29.67,5.59-82.7,3.59-164.45-9.37-244.1-21.04.02-.04.03-.09.05-.13-84.82-12.72-172.01-24.06-259.81-20.7v3.67c164.03-7.07,316.1,41.87,479.44,42.49-128.34,20.08-282.13-16.35-413.2-18.89-22.07-1.13-44.17-.94-66.23-.23v3.75c54.2-1.27,108.67,1.16,162.1,6.64,83.55,7.96,166.77,19.87,251.92,18.37-.05.21-.1.43-.15.64-92.58,12.01-187.65,4.11-281.07.36-44.02-1.19-88.6-2.42-132.8-1.09v4.01c6.8-.08,13.6-.13,20.38-.2,50.81-1.8,101.74.54,152.38,2.92,76.43,3.72,153.77,7.07,229.78-.6-44.35,9.03-94.16,12.89-141.51,15.89-28.01,1.7-56.08,2.98-84.11,4.5-52.29,2.65-104.26,7.27-155.96,12.58-6.99.68-13.98,1.47-20.96,2.28v3.69c13.95-1.58,27.93-3.05,41.97-4.32,76.01-7.96,152.96-11.48,229.77-15.52,104.52-5.53,202.47-28.45,301.76-46.8,73.02-12.95,148.12-22.62,224.27-25.8,106.95-4.79,214.22,4.72,317.14,21.75,80.86,11.82,161.8,30.86,246.39,27.03,10.65-.61,21.19-1.42,31.58-2.9.85-.12,2.01.16,2.05.5.04.31.15.71-.11.92-4.02,2.97-6.92,6.87-13.18,8.41-27.02,6.65-56.13,10.58-85.49,10.02,0,.02,0,.04,0,.06-64.86-.03-125.64-15.45-186.49-26.9-48.79-10.19-98.93-17.79-149.05-25.16-20.56-4.57-42.52-6.35-64.43-6.3-8.48.17-16.97.07-25.38-.79-119.08-6.26-236.72,12.56-348.34,35.38C352.5,417.31,178.59,447.85,0,467.31v3.68c117.36-13.9,234.44-28.77,347.91-51.62,160.61-30.11,319.83-76,492.05-72.04-15.04,1.31-29.7,3.56-44.82,4.49-43.8.53-87.2,5.01-129.29,12.16-192.56,36.44-364.18,105.25-563.44,131.04-34.1,5.21-68.31,10.18-102.41,15.39v3.88c116.18-16.64,232.17-34.55,341.12-64.04,130.93-32.97,255.96-78.74,398.47-92,10.01-.85,20.15-1.14,30.16-2.01.73-.05,1.12.09.97.35-23.22,5.44-47.13,10.44-69.53,17.21-145.5,43.58-280.32,99.97-433.54,134.35-69.89,15.62-142.4,26.62-213.65,39.82-18.14,3.31-36.19,6.81-54,10.69v3.98c59.42-12.74,120.61-22.43,181.07-33.3,94.26-16.16,183.93-40.17,269.35-68.53,110.65-32.72,293.79-113.38,412.27-109.36-79.53,17.45-146.49,49.53-214.28,78.96-64.88,28.08-131.67,54.72-201.7,78.14-131.6,46.16-277.26,74.41-419.79,106.1-9.02,1.67-17.95,4.13-26.91,6.56v3.99c12.95-3.03,25.88-6.04,38.57-9.21,145.94-31.82,294.1-61.82,427.7-109.77,91.96-31.22,176.86-68.76,262.04-105.9,55.69-22.68,115.48-47.71,185.19-50.03,131.58,2.58,162.22,95.12,298.07,107.76,84.13,11.99,162.69-8.1,205.2-52.65,48.45-60.23,89.21-76.95,203.21-75.4,185.94,6.77,344.7,78.03,530.48,86.22,75.65,6.56,151.5-1.55,224.65-13.07,109.75-15.79,219.61-31.73,330.72-43.9,61.06-6.33,123.64-4.53,184.53,1.62,146.74,13.11,273.36,64.13,383.37,120.29,81.31,41.79,157.17,87.27,226.28,136.1v-5.95c-21.62-15.22-43.92-30.09-66.96-44.57-122.65-75.3-256.15-150.22-422.24-190.3-76.89-17.83-160.26-25.72-242.7-24.73-55.26,1.1-109.43,9.07-163.37,15.74-81.29,11.13-162.82,21.7-243.64,33.95-41.08,6.3-82.81,10.95-125.1,13.09-72.74,1.48-145.63-5.39-215.48-17.14-151.59-26.13-297.49-80.71-460.82-69.59-58.25,3.25-101.88,22.88-128.4,53.21-13.05,14.18-24.05,29.14-42.24,41.39-26.44,17.93-63.86,30.75-103.66,34.71-62.41,2.79-124.75-7.13-172.69-31.49h.01c74.89,19.47,175.98,30.19,241.42-6.16,18.13-9.91,32.86-21.64,47.55-33.29,48.73-42.45,114.69-68.34,202.04-72.91,171.93-14.19,305.3,48.51,461.68,77.04,74.04,15.7,154.27,12.68,230,3.03,153.8-17.88,300.3-60.67,459.17-60.68,256.6,1.84,486.36,91.41,658.52,197.69,28.88,18.16,58.43,36.11,86.92,54.59v-5.18c-53.09-34.59-107.38-68.66-166.22-99.88-162.92-86.56-373.36-152.93-597.14-151.17-95.49,2.42-187.59,18.91-278.46,35.28-106.76,18.05-217.27,39.97-329.65,31.6-70.44-7.24-136.55-24.87-201.76-41.56-87.71-24.25-179.66-48.24-278.61-46.01-1.21.1-1.26-.55-.4-.72,7.16-1.05,14.31-2.15,21.51-3.1,24.95-3.03,47.66-4.82,74.03-4.28,139.26-.33,252.19,58.29,383.73,76.92,114.28,12.99,230.01-13.43,337.47-34,100.68-20.83,204.73-43.95,313.17-39.1,196.85,8.18,412.93,88.9,568.83,157.5,55.25,27.25,105.19,58.07,153.48,89.59v-5.93c-1.87-1.25-3.78-2.46-5.78-3.62-30.14-19.41-61.69-38.03-93.47-56.5-82.83-47.46-183.97-81.92-283.07-116.1-123.08-40.03-261.11-74.98-404.43-68.38-187.48,9.47-355.11,79.93-546,76.12-68.84-2.77-130.89-23.03-193.03-39-62.14-17.19-125.2-35.55-194.23-40.25-.86-.14-.91-.99.14-1,16.8-1.32,33.73-2.27,50.71-1.99v-.06c71.95-.67,138.73,18.66,201.33,37.61,48.59,14.6,95.74,33.67,151.02,37.74,50.35,2.87,100.56-4.03,148.36-12.91,117.2-21.87,229.39-52.07,346.16-74.63,90.43-18.45,184.47,1.93,267.49,23.91,163.5,40.59,314.6,96.46,454.54,160.49,34.3,15.68,67.85,31.97,100.27,48.99v-4.99c-6.95-3.61-13.95-7.19-21.01-10.73-44.15-22.22-89.81-43.38-136.81-63.47-112.97-48.36-232.4-91.8-360.52-124.78-69.39-18.05-140.16-38.17-217.11-40.43-41.09-1.53-81.74,5.46-120.07,13.57-74.64,15.59-148.02,33.57-222.39,49.34,69.43-17.76,138.33-37.04,207.34-55.66,44.52-12.06,89.8-26.71,139.8-27.79,135.93-2.54,371.8,96.23,493.85,138.65,79.34,30.31,160.79,59.36,236.92,92.52v-5.62c-3.06-.72-6.01-1.59-8.79-2.7-128.09-52.58-260.64-101.29-394.26-148.8-100.39-32.3-238.75-87.58-355.96-76.13,36.04-12.67,80-16.65,120.89-10.84,77.89,11.14,147.18,36.87,215.64,60.57,137.58,52.25,278.73,101.01,422.48,147.1v-4.26c-4.31-1.56-8.5-3.08-12.35-4.03-13.9-4.52-27.8-9.04-41.67-13.59-75.62-24.75-150.87-49.9-224.7-76.48-113.65-39.77-221.45-89.4-349.61-111.8-13.26-2.06-26.9-2.92-40.38-3.91-.44-.08-.58-.6-.21-.75,11.98-2.55,26.62-3.13,37.07-3.11,117.57,2.05,254.12,59.37,356.48,92.57,73.01,25.16,146.59,49.8,222.4,71.92,17.4,5.18,35.2,9.87,52.96,14.6v-3.99c-74.9-20.01-147.08-43.35-218.44-67.41-122.56-39.25-238.8-91.33-376.84-109.66-6.73-.9-14.4-.6-20.7-1.79,9.57-2.39,26.12-2.98,34.82-3.04,127.28,3.92,240.66,54.44,349.89,88.9,74.41,26.04,151.22,49.58,231.27,68.75v-4.07c-25.09-5.79-49.88-12.02-74.05-19.08-65.04-18.21-127.17-39.77-189.58-60.88-95.83-30.92-191.86-70.26-303.03-76.99,117.53-19.35,291.14,57.13,392.87,90.46,55.85,19.71,113.3,38.37,173.79,52.54v-4.03c-115.89-27.33-218.62-71.37-328.21-106.3-54.12-16.93-110.45-33.29-171.64-38.66-9.27-.8-18.54-.74-27.83-.89-.74-.01-1.12-.11-.99-.44,15.29-3.56,35.02-4.3,51.03-4.64,158.6,2.86,322.38,99.31,477.64,140.05v-4.02c-170.32-46.42-354.04-156.81-521.28-137.17,24.04-7.09,53.91-9.97,80.46-9.95,160.14,3.18,296.69,83.54,440.81,131.08v-4.8c-.92-.21-1.84-.42-2.75-.65-137.54-44.39-302.86-140.16-467.26-128.26-32.55,2.56-62.68,10.38-91.46,19.37-5.85,1.87-12.01,3.11-18.41,4.02-7.84.74-16.03,2.92-23.78,2.75,56.43-20.08,119.75-40.25,187.89-38.66,72.61-.24,141.98,16.48,205.54,35.87,74.41,22.15,140.21,52.65,210.22,79.01v-4.44c-13.98-5.42-27.85-10.94-41.66-16.52-101.78-40.97-208.31-84.61-332.59-96.12-96.59-9.76-171.23,16.56-251.87,43.28-17.12,4.18-36.37,4.61-54,7.99-41.26,6.42-81.76,14.67-120.52,25.23-34.02,9.68-68.07,19.33-102.21,28.86-16.78,3.98-32.16,11.44-50.8,11.65-35.58,1.65-70.58-2.6-103.1-11.12-43.78-11.04-87.15-23.86-126.08-39.93,69.48,16.58,140.8,36.16,217.17,35.91,49.66-1.56,97.28-11.29,142.87-22.46,81.31-20.12,159.55-44.21,238.18-67.65,168.01-55.14,329.62-11.62,486.1,35.08,33.08,10.2,65.85,20.74,98.51,31.39v-4.26c-42.09-13.66-84.11-27.4-127.25-39.89-104.11-29.67-218.15-59.43-336.3-50.62-60.1,4.76-114.41,22-167.69,38.07-67.6,20.21-135.32,40.48-205.63,57.26-42.71,10-87.62,18.95-134.04,19.09-74.97-.57-146.76-19.55-213.99-37.07,24.34,3.33,48.98,8.07,73.59,11.51,45.1,5.76,90.43,12.32,136.74,12.89,98.83-3.5,184.83-37.53,272.3-61.76,65.86-18.38,128.2-43.9,201.1-51.37,169.81-14.5,330.19,35.64,481.46,74.33,6.61,1.67,13.17,3.42,19.71,5.19v-4.03c-71.89-19.07-143.29-38.87-217.61-54.49-95.56-20.24-199.85-36.17-301.11-22.77-40.93,5.61-78.6,17.02-115.62,28.42-64.02,19.04-127.33,38.98-192.34,56.84-44.98,11.98-91.92,24.42-141.93,25.65-21.9.24-43.77-.94-65.29-3.34-54.5-5.56-108.08-13.65-161.05-22.98-1.01-.17-1.95-.53-2.87-.84-.45-.15-.32-.3.25-.3.54,0,1.09-.08,1.61-.02,46.13,5.47,92.74,9.48,139.59,12,47.73,2.92,97.06,3.7,142.82-6.05,99.33-21.42,188.65-56.01,284.06-82.6,29.55-8.71,60.39-16.42,92.98-20.09,92.86-9.16,187.5,2.22,276.52,18.05,89.24,15.32,174.03,37.8,260,58.29v-3.97c-54.15-13.44-108.18-27.07-163.33-39.02-127.11-26.59-266.87-53.77-401.8-33-76.19,15.38-145.29,40.81-216.84,62.24-115.3,35.27-160.95,51.59-294.84,41.18-38.06-2.49-75.98-5.79-113.53-10.25-15.03-1.76-30.04-3.56-45.05-5.38-3-.65-7.68-.54-9.38-2.36-.33-.31.82-.68,1.81-.58,21.05,2.04,41.86,4.68,63.02,6.3.03,0,.07,0,.1,0,74.63,5.23,151.22,9.26,225.51.55,63.72-8.79,120.28-29.38,177.76-47.06,76.82-22.59,152.01-52.26,238.39-59.59,107.86-5.94,215.5,8.07,318.1,26.74,75.08,13.36,148.17,30.17,220.07,48.58v-4.19c-3.12-.66-6.2-1.39-9.28-2.19-111.44-28.36-226.73-52.5-346.02-66.34-89.89-9.48-187.47-14.91-272.44,8.84-72.01,18.61-140.36,41.62-209.89,63.15-43.31,12.81-87.46,26.38-136.02,30.36-95.55,7.32-192.96.1-286.85-11.18-.38-.1-.16-.38.22-.5,3.75-.33,5.1-.06,7.78,0,15.98,1.31,31.94,2.73,47.97,3.87,46.71,3.09,93.8,5.48,140.81,4.69,156.95,1.03,282.75-61.96,423.23-93.85,139.61-32.77,295.43-15.55,436.47,5.46,70.09,10.69,138.33,25.18,204.03,43.01v-4.32c-39.1-9.7-77.99-19.99-118.59-27.51-108.62-20.73-221.1-36.77-335.68-38.14,132.7-9.56,319.89,4.14,454.27,41.84v-4.62c-5.08-1.24-5.7-1.39-15.04-3.64-66.74-17.21-138.09-27.45-210.01-33.61-20.54-1.84-41.17-3.39-61.84-4.52-10.93-.25-21.77-1.34-32.74-1.25-.72,0-1.04-.25-.82-.61,40.22-3.99,83.9-4.66,124.57-4.78,66.35,0,133.28,2.51,195.89,15.65v-4c-57.38-11.87-119.62-14.64-180.16-15.7,56.43-6.1,115.1-7.78,172.1-3.56,2.59.29,5.29.58,8.06.89v-4.01c-28.68-2.85-57.96-2.92-86.81-3.3,28.04-3.17,57.58-5.06,86.81-4.49v-3.67c-24.04-.49-48.23.55-71.99,2.56-.03-.19-.06-.39-.09-.58,23.6-3.77,47.74-6.08,72.08-6.74v-3.98ZM1055.09,250.16c-8.51-1.78-17.01-3.57-25.5-5.39-.38-.17-1.09-.93.02-.97,17.56-.99,34.08-4.66,50.38-8.41,37.23-8.59,75.55-15.39,114.83-19.89,85.13-9.44,175.27-13.09,261.1-7.4-26.75,3.44-53.69,3.83-80.81,5-43.32,1.72-86.59,5.05-129.31,9.75-47.38,5.12-94.03,12.41-139.58,21.64-10.11,2.04-20.36,3.78-30.9,4.86-6.64.33-13.71,2.11-20.23.81ZM1077.53,254.23c-2.78-1.11,1.83-1.36,3.43-1.68,10.72-1.34,21.22-3.14,31.56-5.28,81.94-16.61,167.94-26.2,254.25-29.93.01.21.02.43.04.64-50.65,6.81-100.8,14.83-150.45,23.83-36.25,6.44-72.31,14.81-110.66,15.07-9.77.35-19-.96-28.17-2.66ZM1129.69,260.44c75.66-11.92,157.71-28.47,237.01-38.72,20.12-2.31,40.2-4.76,60.35-6.97.99-.12,1.25.46.14.67-57.51,12.42-114.44,25.85-172.92,36.64-40.16,7.4-82.64,10.98-124.59,8.37ZM1333.47,254.32c-50.89,9.28-104.31,11.89-157.33,11.14-.12-.16-.24-.32-.36-.47,125.04-8.35,236.43-48.81,357.84-65.48-63.8,20.54-130.09,41.73-200.15,54.81ZM201.14,206.99c128.7-4.38,257.48-6.29,385.24,4.69,93.51,7.31,182.53,26.98,268.72,48.57-.9-.14-1.18-.19-1.97-.37-108.84-16.33-220.5-23.72-331.55-32.83-70.28-5.14-140.6-10.24-211.15-13.93-25.84-1.51-51.72-2.91-77.66-3.87-11.25-.59-20.09-.45-31.63-2.26ZM852.65,264.21c-22.56.61-46.11-1.92-69.04-1.93-51.83-1.97-103.73-3.19-155.36-6.85-116.61-9.09-231.13-25.38-346.2-39.4-.03-.15-.07-.3-.1-.45,92.89,4.11,185.47,11.11,277.83,18.34,98.07,8.15,197.45,14.46,292.88,30.29ZM244.28,215.92l.13-.21.41.14-.54.07ZM797.97,275.75c-43.56,1.97-87.64,2.38-131.23.79-142.49-6.44-278.61-37.02-414.79-59.77,130.99,13.62,260.53,35.26,393.33,43.46,55.74,3.69,111.87,4.7,167.8,6.71,17.74.7,35.47,1.41,53.2,2.24,7.95.78,16.87.15,24.21,1.98-31,.46-61.59,3.3-92.5,4.59ZM933.81,269.38c-92.85-10.89-176.04-41.36-269.15-52.59-94.81-13.44-192.77-17.07-290-17v-.02c-47.89.04-95.77.81-143.55,2.51-21.56.06-43.22,1.86-64.69,1.72-17.23-2.45-35.28-3.02-52.37-5.34.27-.85,1.59-.59,2.46-.76,20.55-2.68,41.32-4.84,62-7.19,32.6-3.31,65.14-7.07,98.05-9.11,74.21-4.52,149.39-5.03,223.58-.1,179.27,10.89,337.18,68.39,513.38,86.62,35.25,3.77-70.86,2.15-79.71,1.26ZM1051.67,389.2c-17.34-10.51-36.18-20.26-57.11-28.23,75.03,7.75,154.69,30.23,232.09,41.02,41.96,6.31,86.2,7.35,128.04,1.03.01.26.07.68-.18.77-6.98,2.56-14.4,4.63-21.89,6.6-28.36,7.27-59.91,9.79-90.65,8.74-46.22-1.29-91.53-7.97-135.27-16.59-15.05-2.97-29.91-6.24-44.79-9.48-3.93-.86-7.37-2.02-10.25-3.85ZM1222.11,439.07c-43.58-1.43-85.5-10.34-123.57-22.59-12.59-4.46-21.07-12.15-31.8-18,96.97,20.15,212.61,41.07,305.52,3.85h0c-36.05,28.6-90.81,40.71-150.16,36.74ZM1405.45,376.73c-15.7,4.88-34.97,5.41-52.59,6.16-41.98,1.11-83.61-2.96-124.07-9.3-75.18-11.46-149.49-25.29-226.08-33.23-106.58-11.43-216.02-9.66-322.09,2.86,40.38-7.2,121.2-14.38,176.43-16.18,48.15-1.19,96.27-.54,144.28,1.95,131.84,6.57,260.31,26.49,390.91,37.81,19.95,2.52,31.63-2.92,13.21,9.93ZM1444.18,350.21c-5.33,4.23-12.19,7.85-18.09,11.85-1.85,1.22-4.05,2.31-6.98,2.2-39.67-.93-78.62-6.13-117.56-10.39-49.18-5.51-98.36-11.07-147.63-16.3-103.46-11.02-208.39-17.34-313.49-14.03,191.64-18.25,385.26,8.22,575.41,22.97,3.13.72,31.14,1.13,28.34,3.7ZM1475.35,335.42c-6.71,2.8-13.15,5.8-19.36,8.97-1.78.91-3.74,1.15-6.08.98-184.81-13.46-369.59-39.1-556.71-29.64,192.31-20.27,386.49,4.43,577.86,17.17,3.05.12,7.6.67,4.28,2.51ZM1515.63,322.47c-7.88,1.88-15.47,4.11-22.86,6.58-3.03,1.01-6.03,1.35-9.43,1.1-195.9-13.89-393.6-37.34-590.79-18.9,81.73-13.66,207.23-17.53,304.79-12.73,100.93,4.06,200.92,14,301.42,20.76,2.07.6,26.12.36,16.87,3.19ZM1555.23,314.71c-9.31,1.16-18.33,3.86-28.04,2.78-77.45-5.05-154.52-11.97-231.93-17.21-161.32-12.2-312.14-11.67-468.4,17.43,249.89-70.54,530.33-19.56,792.92-10.99-21.3,2.65-43.23,4.85-64.56,8ZM2740.41,248.33c-.51.1-1.02.2-1.53.31.38-.27.96-.27,1.53-.31ZM1971.68,174.86c.16.37-.19.57-.82.71-6.9,1.54-13.83,3.05-20.69,4.67-41.46,10.57-71.75,30.98-104.43,48.62-54.97,32.44-133.29,47.92-210.07,49.23,155.86-20.04,169.36-91.26,303.38-102.41,10.76-.74,22.03-1.45,32.61-.81ZM1580.98,278.79c153.7-29.15,165.36-103.37,329.56-103.86-65.38,10.13-106.62,41.36-156.51,65.62-48.54,23.22-111.11,36.25-173.05,38.24ZM1367.95,276.38c-8.65,1.4-17.38,0-26.11-.15-6.83-.17-13.66-.2-20.46-.81-39.01-.92,17.64-3.76,26.55-5.63,23.06-2.81,45.93-6.08,68.26-10.51,127.11-24.76,221.02-96.91,360.31-101.28,47.75-2.4,94.32,6.83,140.37,12.97-.03.15-.06.29-.09.44-25.34.89-49.81-3.43-74.7-5.52-98.13-10.8-168.65,14.76-243.16,48.74-46.67,20.53-94.89,41.66-151.88,50.82-26.07,4.36-52.59,7.67-79.09,10.93ZM1390.62,277.92c32.37-5.92,67.24-8.51,98.2-17.44,125.11-33.88,201.96-109.76,357.34-90.36-145.9.86-184.78,66.26-303.89,97.07-22.74,6.06-46.82,10.02-71.41,12.48-26.69.42-53.48-1.31-80.24-1.75ZM1505.98,278.85c27.9-4.54,53.78-11.77,78.51-20.54,28.83-10.05,53.92-23.15,79.28-35.93,57.53-30.97,111.75-49.93,192.36-48.02-64.75,6.82-110.79,35.01-157.55,59.94-52.96,27.38-121.84,48.37-193.78,45.82-2.22-.2.11-1.21,1.18-1.27ZM1677.83,285.85c-53.34,1.71-106.64.23-159.94-1.11-.08-.14-.15-.29-.23-.43,46.78.06,93.6-.35,140.15-3.02,233.71-11.2,208.61-125.8,420.02-103.6-110.58,1.7-132.01,38.31-209.33,74.77-3.43,1.67-7.32,2.77-11.59,3.52-22.57,3.97-44.51,9-66.41,14.07-18.69,3.65-34.76,11.51-54.68,12.77-19.24,1.55-38.6,2.71-57.99,3.04ZM2209.53,366.29c-51.61,1.36-98.37-13.54-142.27-27.76-89.98-29.04-182.97-57.04-288.66-46.05-1.87.27-57.31,5.86-41.75,1.76,159.99-27.34,240.07-4.23,378.11,41.28,56.47,19.04,102.59,30.88,168.98,24.55-23.62,4.42-49.51,5.97-74.42,6.22ZM2291.08,359.23l.41-.12.09.2-.5-.08ZM2303.19,353.78c-75.56,10.62-121.74-.04-186.51-21.98-163.09-53.93-234.79-69.08-419.04-34.61,71.93-18.29,152.26-31.62,231.71-29.25,85.21,3.66,155.72,35.21,226.6,60.25,43.87,16.31,94.41,29.64,147.38,25.1-.05.16-.1.33-.15.49ZM2267.6,349.85c-39.2-1.16-74.54-13-107.57-24.55-122.58-45.86-201.92-77.24-353.02-53.62-3.06.2-6.56,1.43-9.43,1.07,4.18-1.82,10.52-2.57,15.55-3.89,187.95-40.93,242.17.1,396.14,51.86,38.18,13.04,78.62,26.71,124.21,25.82-21.38,3.8-43.8,3.47-65.88,3.31ZM2354.49,342.23c-42.08,3.83-83.63-4.99-119.66-17.27-37.6-12.6-75.39-25.01-111.58-39-79.13-30.75-141.22-44.21-236.77-33.83-.32.09-.64.19-.96.28,64.41-19.69,147.72-25.85,214.57-6.55,46.35,13.57,83.58,35.25,125.53,52.72,47.45,18.64,99.26,37.16,157.01,39.68-7.77,3.43-18.77,3.17-28.13,3.95ZM2406.51,333.17c-5.87,1.6-12.36.97-18.61,1.09-61.99-.76-116.8-22.13-166.41-42.09-63.43-28.81-128.23-65.09-214.3-61.6-14.48.03-28.9,1.23-43.22,2.44-4.1-.54,10.24-5.08,13.3-6.06,37.76-11.53,82.06-14.42,123.74-10.5,59.37,4.92,103.65,30.59,146.28,53.29,48.97,25.95,105.52,50.65,171.37,58.2,9.21,1.01-8.88,4.19-12.16,5.22ZM2459.71,319.79c-8.58,2.01-17.23,5.89-26.8,5.35-31.26-1.46-60.76-8.57-87.81-17.67-98.13-29.06-157.85-99.37-278.93-96.31-23.02-.32-45.89,2.23-67.76,6.33-.93.22-1.53-.41-1-.82,47.35-24.4,119.96-24.86,176.34-11.89,47.66,11.44,82.41,35.01,119.27,55.28,45.42,25.68,99.28,48.42,161.08,57.5,1.68.39,8.66.52,5.61,2.22ZM2525.81,297.84c4.06.13,18.05-.71,7.18,2.26-6.69,1.85-13.45,3.61-20.08,5.54-13.16,3.23-30.46-1.22-43.98-2.78-66.31-12.26-126.09-36.64-176.43-64.42,71.26,25.2,148.33,56.59,233.31,59.4ZM2315.68,255.7c51.08,24.59,109.5,46.39,175.01,53.97,6.52,1.24-10.26,4.41-14.21,5.69-60.84-2.49-115.52-25.64-161.07-48.23-37.68-19.82-71.1-42.89-114.48-58.62-62.2-21.02-150.22-23.25-207.12,4.92-6.97,3.35-12.93,7.5-20.41,10.46-9.76,2.92-17.66,7.82-28.08,9.91-17.72,3.35-34.7,7.91-52.24,11.58l-.03-.02c37.57-19.64,68.34-45.34,116.41-56.56,41.09-9.07,87.31-8.25,129.17-1.43,70.05,10.98,122.48,42.05,177.05,68.35ZM2495.89,214.23c-86.62,6.64-174.6.93-260.48-6.95.24-.47,1.06-.56,1.55-.55,8.47.17,16.94.19,25.4.73,57.82,1.45,116.09,2.34,173.91.53,79.28-1.92,155.85-15.7,230.57-30.44-48.73,15.78-111.45,32.34-170.96,36.68ZM2451.28,203.63c-67.44,3.27-135.22,1.17-202.7-.29.18-.22,1.23-.5,1.85-.54,12.26-.8,24.59-.76,36.9-.95,9.54-.49,19.12-.73,28.68-.98,39.03-1.49,78.06-3.29,116.82-6.39,86.1-7.32,170.9-19.57,257.03-26.63.57-.25,1.06-.62,1.92-.42-76.69,17.92-157.81,32.17-240.49,36.2ZM2422.77,191.58c-60.77,4.04-121.73,6.76-182.87,7.22,38.35-4.43,78.57-6.38,117.28-11.03,58.26-5.82,115.09-15.89,173.62-20.78,61.35-4.8,123.46-6.75,185.27-6.48-97.7,10.61-195.15,22.01-293.3,31.07ZM2545.7,161.95c-63.89,4.55-125.67,15.68-189,22.08-44.67,4.55-89.52,8.95-134.6,11.67-2.99.12-1.94-.37-.06-.57,105.55-13.69,207.45-38.44,315.54-44.29,65.89-2.17,132.66-.88,197.83,4.98-63.08,1.67-126.75,1.46-189.7,6.12ZM2750.48,151.86c-17.78.94-35.84-2.37-53.74-2.69-65.22-3.58-131.48-4.63-196.54.29-69.85,6.44-136.61,20.84-205.14,30.68-32.85,4.97-65.78,9.89-98.67,14.71-4.36.96-8.03.18-11.42-1.42-.99-1.18,1.65-1.59,3.39-1.92,48.97-8.77,97.78-17.82,146.45-27.14,51.79-9.7,103.79-20.06,158.06-23.62,25.29-1.67,50.72-2.28,76.15-2.67,33.34.61,66.72,1.5,99.84,4.06,27.33,2.32,54.69,4.8,81.54,8.64,1,.11.79.89.08,1.08Z"/>
</svg>