<?xml version="1.0" encoding="UTF-8"?>
<svg id="Layer_2" xmlns="http://www.w3.org/2000/svg" viewBox="0 0 40.24 40.24">
  <defs>
    <style>
      .cls-1 {
        fill: #fff;
      }
    </style>
  </defs>
  <g id="Layer_2-2" data-name="Layer_2">
    <path class="cls-1" d="M28.55,25.6c2.49,1.9,4.16,2.3,5.22,1.82.7-.31,1.2-1.05,1.49-1.86,2.62-7.27-.33-15.47-7.1-19.38-7.7-4.44-17.54-1.81-21.98,5.89-4.44,7.7-1.81,17.54,5.89,21.98,2.49,1.44,5.26,2.17,8.08,2.16v4.02c-3.51.01-6.98-.9-10.09-2.7C.44,31.98-2.86,19.68,2.7,10.06,8.25.44,20.56-2.86,30.18,2.7c8.47,4.89,12.16,15.13,8.87,24.23-.22.61-.51,1.22-.95,1.86-.68.99-1.56,1.8-2.68,2.3-2.67,1.2-5.92.38-9.72-2.61-1.6,1.07-3.52,1.69-5.59,1.69-5.55,0-10.06-4.5-10.06-10.06s4.5-10.06,10.06-10.06,10.06,4.5,10.06,10.06c0,2.02-.6,3.91-1.62,5.48h0ZM20.12,26.15c3.33,0,6.03-2.7,6.03-6.03s-2.7-6.03-6.03-6.03-6.03,2.7-6.03,6.03,2.7,6.03,6.03,6.03Z"/>
  </g>
</svg>