<?xml version="1.0" encoding="UTF-8"?>
<svg id="Layer_2" xmlns="http://www.w3.org/2000/svg" viewBox="0 0 437.57 969.18">
  <defs>
    <style>
      .cls-1 {
        fill: #0066ba;
      }
    </style>
  </defs>
  <g id="_Ñëîé_1">
    <path class="cls-1" d="M437.57,0c-64.74,118.47-129.49,236.94-194.23,355.4.4.56.8,1.13,1.2,1.69,56.25-20.11,112.51-40.22,168.76-60.32.4.59.8,1.17,1.19,1.76-77,118.26-154.01,236.51-231.01,354.77.28.34.56.67.84,1.01,50.93-18.2,101.86-36.41,153.86-55C225.4,723.05,113.22,846.11,1.05,969.18c-.35-.16-.7-.33-1.05-.49,35.52-80.32,71.04-160.63,106.55-240.95-.48-.46-.97-.91-1.45-1.37-34.34,11.56-68.67,23.12-104.81,35.28,55.76-109.91,110.58-217.95,165.39-325.99-.4-.61-.8-1.22-1.19-1.83-52.08,16.66-104.17,33.33-157.52,50.4,1.24-3.03,1.84-4.79,2.66-6.45,61.51-125.13,123.07-250.23,184.43-375.43,2.73-5.57,6.63-8.71,12.02-10.79,32.79-12.68,65.61-25.31,98.36-38.1,41.39-16.16,82.74-32.43,124.07-48.73,2.35-.93,4.42-2.56,6.62-3.86.81-.29,1.63-.58,2.44-.87h0Z"/>
  </g>
</svg>