<?xml version="1.0" encoding="UTF-8"?>
<svg id="Layer_2" xmlns="http://www.w3.org/2000/svg" viewBox="0 0 44.25 44.25">
  <defs>
    <style>
      .cls-1 {
        fill: #fff;
      }
    </style>
  </defs>
  <g id="Layer_2-2" data-name="Layer_2">
    <g>
      <path class="cls-1" d="M15.39,22.5c-.83-1.26-1.31-2.77-1.31-4.39,0-4.44,3.6-8.05,8.05-8.05s8.05,3.6,8.05,8.05c0,1.62-.48,3.13-1.31,4.39,4.23,1.19,7.34,5.07,7.34,9.69v6.03h-4.02v-6.03c0-3.33-2.7-6.03-6.03-6.03h-8.05c-3.33,0-6.03,2.7-6.03,6.03v6.03h-4.02v-6.03c0-4.61,3.11-8.5,7.34-9.69ZM22.13,22.13c2.22,0,4.02-1.8,4.02-4.02s-1.8-4.02-4.02-4.02-4.02,1.8-4.02,4.02,1.8,4.02,4.02,4.02Z"/>
      <path class="cls-1" d="M22.13,44.25C9.91,44.25,0,34.35,0,22.13S9.91,0,22.13,0s22.13,9.91,22.13,22.13-9.91,22.13-22.13,22.13ZM22.13,40.23c10,0,18.1-8.11,18.1-18.1S32.12,4.02,22.13,4.02,4.02,12.13,4.02,22.13s8.11,18.1,18.1,18.1Z"/>
    </g>
  </g>
</svg>